<svg width="200" height="200" viewBox="0 0 200 200" fill="none" xmlns="http://www.w3.org/2000/svg">
<rect x="97.5046" y="139.102" width="22.5292" height="53.1306" transform="rotate(-45 97.5046 139.102)" fill="#005E99"/>
<rect x="97.3601" y="138.792" width="49.3811" height="22.0074" transform="rotate(-45 97.3601 138.792)" fill="#55C4FB" fill-opacity="0.83"/>
<path fill-rule="evenodd" clip-rule="evenodd" d="M120.251 40.3005C125.186 42.0719 129.595 44.852 133.225 48.4819L101.742 79.9647L70.2593 111.448C66.6294 107.818 63.8494 103.409 62.0779 98.4732C60.3065 93.5374 59.5784 88.1713 59.9351 82.6811C60.2918 77.1909 61.7264 71.6843 64.157 66.4755C66.5875 61.2667 69.9665 56.4578 74.1009 52.3235C78.2353 48.1891 83.0441 44.8101 88.2529 42.3796C93.4617 39.949 98.9683 38.5144 104.459 38.1577C109.949 37.8009 115.315 38.5291 120.251 40.3005ZM138.438 55.475L75.3276 118.586L90.8892 134.147L154 71.0366L138.438 55.475Z" fill="#49CAF8"/>
<circle cx="76.1009" cy="77.676" r="4.89054" transform="rotate(-4.99032 76.1009 77.676)" fill="white"/>
<circle cx="100.427" cy="54.0744" r="4.89054" transform="rotate(-4.99032 100.427 54.0744)" fill="white"/>
<rect x="49.6445" y="58.2338" width="17.7282" height="7.3358" rx="3.6679" transform="rotate(21.1294 49.6445 58.2338)" fill="white"/>
<rect x="91.9875" y="24" width="17.7282" height="7.3358" rx="3.6679" transform="rotate(75 91.9875 24)" fill="white"/>
</svg>
