<svg width="723" height="98" viewBox="0 0 723 98" fill="none" xmlns="http://www.w3.org/2000/svg">
<rect x="32.0918" y="73.1386" width="14.3156" height="33.7605" transform="rotate(-45 32.0918 73.1386)" fill="#005E99"/>
<rect x="32" y="72.9419" width="31.3779" height="13.984" transform="rotate(-45 32 72.9419)" fill="#55C4FB" fill-opacity="0.83"/>
<path fill-rule="evenodd" clip-rule="evenodd" d="M46.5453 10.3578C49.6816 11.4834 52.483 13.2499 54.7895 15.5564L34.7845 35.5614L14.7796 55.5663C12.4731 53.2598 10.7066 50.4584 9.58097 47.3221C8.45536 44.1858 7.99268 40.776 8.21935 37.2874C8.44602 33.7988 9.3576 30.2998 10.902 26.99C12.4465 23.6802 14.5935 20.6245 17.2206 17.9974C19.8477 15.3703 22.9034 13.2233 26.2132 11.6788C29.5229 10.1344 33.022 9.22282 36.5106 8.99615C39.9992 8.76948 43.409 9.23216 46.5453 10.3578ZM58.1022 20L18 60.1022L27.8882 69.9904L67.9904 29.8882L58.1022 20Z" fill="#49CAF8"/>
<circle cx="18.4913" cy="34.1071" r="3.10756" transform="rotate(-4.99032 18.4913 34.1071)" fill="white"/>
<circle cx="33.9487" cy="19.11" r="3.10756" transform="rotate(-4.99032 33.9487 19.11)" fill="white"/>
<rect x="1.6803" y="21.753" width="11.2649" height="4.66135" rx="2.33067" transform="rotate(21.1294 1.6803 21.753)" fill="white"/>
<rect x="28.5862" width="11.2649" height="4.66135" rx="2.33067" transform="rotate(75 28.5862 0)" fill="white"/>
<path d="M682.701 69.9628L682.737 51.0906H685.027L703.198 29.5594H721.257L696.845 58.0708H693.115L682.701 69.9628ZM668.445 86.2867V10.6503H684.178V86.2867H668.445ZM703.899 86.2867L687.206 61.5793L697.695 50.4628L722.328 86.2867H703.899Z" fill="#2E5999"/>
<path d="M633.037 87.3946C627.226 87.3946 622.228 86.1636 618.042 83.7014C613.881 81.2147 610.681 77.7677 608.44 73.3605C606.224 68.9533 605.116 63.8814 605.116 58.1446C605.116 52.334 606.236 47.2374 608.477 42.8548C610.742 38.4476 613.955 35.013 618.116 32.5509C622.277 30.0641 627.226 28.8208 632.963 28.8208C637.912 28.8208 642.245 29.7194 645.963 31.5168C649.681 33.3141 652.623 35.8378 654.789 39.0878C656.956 42.3378 658.15 46.1541 658.372 50.5367H643.525C643.107 47.7052 641.999 45.4278 640.201 43.7043C638.429 41.9562 636.102 41.0821 633.221 41.0821C630.784 41.0821 628.654 41.7469 626.832 43.0764C625.035 44.3814 623.631 46.2895 622.622 48.8009C621.612 51.3122 621.108 54.3529 621.108 57.923C621.108 61.5423 621.6 64.62 622.585 67.156C623.594 69.692 625.01 71.6247 626.832 72.9543C628.654 74.2838 630.784 74.9486 633.221 74.9486C635.019 74.9486 636.631 74.5793 638.059 73.8406C639.512 73.102 640.706 72.031 641.642 70.6276C642.602 69.1995 643.23 67.4884 643.525 65.494H658.372C658.126 69.8274 656.944 73.6437 654.826 76.9429C652.734 80.2175 649.841 82.7781 646.147 84.6247C642.454 86.4713 638.084 87.3946 633.037 87.3946Z" fill="#2E5999"/>
<path d="M563.254 87.3577C559.635 87.3577 556.409 86.7298 553.578 85.4742C550.746 84.1939 548.506 82.3103 546.856 79.8236C545.231 77.3122 544.419 74.1853 544.419 70.4429C544.419 67.2914 544.997 64.6446 546.154 62.5026C547.312 60.3605 548.887 58.637 550.882 57.3321C552.876 56.0272 555.141 55.0423 557.677 54.3776C560.238 53.7128 562.922 53.245 565.728 52.9742C569.028 52.6295 571.687 52.3094 573.706 52.0139C575.725 51.6939 577.19 51.2261 578.101 50.6105C579.012 49.995 579.467 49.084 579.467 47.8776V47.656C579.467 45.317 578.728 43.5073 577.251 42.227C575.798 40.9467 573.73 40.3065 571.047 40.3065C568.215 40.3065 565.962 40.9344 564.288 42.1901C562.614 43.4211 561.506 44.9723 560.964 46.8435L546.413 45.6617C547.152 42.2147 548.604 39.2355 550.771 36.7242C552.938 34.1882 555.732 32.2431 559.154 30.8889C562.601 29.5101 566.59 28.8208 571.12 28.8208C574.272 28.8208 577.288 29.1901 580.169 29.9287C583.074 30.6673 585.647 31.8122 587.887 33.3634C590.153 34.9145 591.938 36.9088 593.243 39.3463C594.547 41.7592 595.2 44.6522 595.2 48.0253V86.2867H580.279V78.4202H579.836C578.925 80.1929 577.707 81.7564 576.18 83.1105C574.654 84.4401 572.819 85.4865 570.677 86.2497C568.535 86.9884 566.061 87.3577 563.254 87.3577ZM567.76 76.4997C570.074 76.4997 572.118 76.0442 573.89 75.1333C575.663 74.1976 577.054 72.942 578.064 71.3662C579.073 69.7904 579.578 68.0054 579.578 66.0111V59.9912C579.085 60.3113 578.408 60.6067 577.547 60.8776C576.709 61.1238 575.762 61.3577 574.703 61.5793C573.644 61.7762 572.585 61.9609 571.527 62.1333C570.468 62.281 569.508 62.4164 568.646 62.5395C566.799 62.8103 565.187 63.2412 563.808 63.8321C562.429 64.423 561.358 65.2232 560.595 66.2327C559.832 67.2175 559.45 68.4486 559.45 69.9259C559.45 72.0679 560.226 73.7052 561.777 74.8378C563.352 75.9457 565.347 76.4997 567.76 76.4997Z" fill="#2E5999"/>
<path d="M536.829 29.5594V41.3776H502.667V29.5594H536.829ZM510.423 15.9685H526.156V68.8549C526.156 70.3075 526.377 71.4401 526.821 72.2526C527.264 73.0405 527.879 73.5944 528.667 73.9145C529.48 74.2346 530.415 74.3946 531.474 74.3946C532.213 74.3946 532.951 74.3331 533.69 74.21C534.429 74.0622 534.995 73.9514 535.389 73.8776L537.863 85.585C537.075 85.8312 535.967 86.1143 534.539 86.4344C533.111 86.7791 531.376 86.9884 529.332 87.0622C525.54 87.21 522.216 86.7052 519.36 85.548C516.529 84.3908 514.325 82.5935 512.75 80.156C511.174 77.7185 510.398 74.6408 510.423 70.923V15.9685Z" fill="#2E5999"/>
<path d="M479.834 32.4031C479.539 29.424 478.271 27.1096 476.03 25.46C473.79 23.8103 470.749 22.9855 466.908 22.9855C464.298 22.9855 462.095 23.3548 460.297 24.0935C458.5 24.8075 457.121 25.8047 456.161 27.085C455.225 28.3653 454.757 29.8179 454.757 31.4429C454.708 32.7971 454.991 33.9789 455.607 34.9884C456.247 35.9978 457.121 36.8719 458.229 37.6105C459.337 38.3245 460.617 38.9524 462.07 39.4941C463.523 40.0111 465.074 40.4543 466.723 40.8236L473.519 42.4486C476.818 43.1872 479.846 44.1721 482.604 45.4031C485.362 46.6342 487.75 48.1484 489.769 49.9458C491.788 51.7431 493.351 53.8605 494.459 56.298C495.592 58.7355 496.17 61.53 496.195 64.6815C496.17 69.3103 494.988 73.3236 492.649 76.7213C490.335 80.0944 486.987 82.7166 482.604 84.5878C478.246 86.4344 472.989 87.3577 466.834 87.3577C460.728 87.3577 455.41 86.4221 450.88 84.5509C446.374 82.6797 442.853 79.9098 440.317 76.2412C437.806 72.548 436.488 67.9808 436.365 62.5395H451.84C452.012 65.0755 452.738 67.1929 454.019 68.8918C455.324 70.566 457.06 71.834 459.226 72.6958C461.417 73.5329 463.892 73.9514 466.649 73.9514C469.358 73.9514 471.709 73.5575 473.703 72.7696C475.722 71.9817 477.286 70.8861 478.394 69.4827C479.502 68.0793 480.056 66.4666 480.056 64.6446C480.056 62.9458 479.551 61.5177 478.542 60.3605C477.557 59.2033 476.104 58.2185 474.184 57.406C472.288 56.5935 469.961 55.8549 467.203 55.1901L458.968 53.1219C452.591 51.5708 447.556 49.1456 443.863 45.8463C440.169 42.5471 438.335 38.103 438.36 32.5139C438.335 27.9344 439.554 23.9334 442.016 20.5111C444.503 17.0888 447.913 14.4174 452.246 12.4969C456.579 10.5764 461.504 9.61621 467.019 9.61621C472.632 9.61621 477.532 10.5764 481.718 12.4969C485.928 14.4174 489.202 17.0888 491.542 20.5111C493.881 23.9334 495.087 27.8975 495.161 32.4031H479.834Z" fill="#2E5999"/>
<path d="M395.953 86.2867V29.5594H411.206V39.4571H411.797C412.831 35.9363 414.566 33.2772 417.004 31.4798C419.441 29.6579 422.248 28.7469 425.424 28.7469C426.212 28.7469 427.062 28.7961 427.973 28.8946C428.884 28.9931 429.684 29.1285 430.373 29.3009V43.2611C429.635 43.0395 428.613 42.8425 427.308 42.6702C426.003 42.4978 424.809 42.4117 423.725 42.4117C421.411 42.4117 419.343 42.9164 417.521 43.9259C415.724 44.9107 414.296 46.2895 413.237 48.0622C412.203 49.835 411.686 51.8785 411.686 54.1929V86.2867H395.953Z" fill="#55C4FB" fill-opacity="0.83"/>
<path d="M359.649 87.3946C353.814 87.3946 348.791 86.2128 344.581 83.8492C340.395 81.4609 337.17 78.0878 334.904 73.7298C332.639 69.3473 331.507 64.1645 331.507 58.1815C331.507 52.3463 332.639 47.2251 334.904 42.8179C337.17 38.4107 340.358 34.9761 344.47 32.5139C348.606 30.0518 353.457 28.8208 359.021 28.8208C362.763 28.8208 366.247 29.424 369.473 30.6304C372.723 31.8122 375.554 33.5973 377.967 35.9855C380.404 38.3738 382.3 41.3776 383.654 44.9969C385.009 48.5916 385.686 52.8018 385.686 57.6276V61.9486H337.785V52.1986H370.876C370.876 49.9334 370.384 47.9268 369.399 46.1787C368.414 44.4306 367.047 43.0641 365.299 42.0793C363.576 41.0698 361.569 40.5651 359.279 40.5651C356.891 40.5651 354.774 41.119 352.927 42.227C351.105 43.3103 349.677 44.7753 348.643 46.6219C347.609 48.4439 347.08 50.4751 347.055 52.7156V61.9855C347.055 64.7923 347.572 67.2175 348.606 69.2611C349.665 71.3047 351.154 72.8804 353.075 73.9884C354.995 75.0963 357.273 75.6503 359.907 75.6503C361.655 75.6503 363.256 75.4041 364.708 74.9117C366.161 74.4192 367.404 73.6806 368.439 72.6958C369.473 71.7109 370.261 70.5045 370.802 69.0764L385.353 70.0367C384.615 73.5329 383.1 76.5859 380.811 79.1958C378.546 81.781 375.616 83.7999 372.021 85.2526C368.451 86.6806 364.327 87.3946 359.649 87.3946Z" fill="#55C4FB" fill-opacity="0.83"/>
<path d="M324.157 29.5594V41.3776H289.995V29.5594H324.157ZM297.751 15.9685H313.484V68.8549C313.484 70.3075 313.706 71.4401 314.149 72.2526C314.592 73.0405 315.207 73.5944 315.995 73.9145C316.808 74.2346 317.743 74.3946 318.802 74.3946C319.541 74.3946 320.279 74.3331 321.018 74.21C321.757 74.0622 322.323 73.9514 322.717 73.8776L325.191 85.585C324.403 85.8312 323.296 86.1143 321.868 86.4344C320.439 86.7791 318.704 86.9884 316.66 87.0622C312.868 87.21 309.545 86.7052 306.689 85.548C303.857 84.3908 301.654 82.5935 300.078 80.156C298.502 77.7185 297.726 74.6408 297.751 70.923V15.9685Z" fill="#55C4FB" fill-opacity="0.83"/>
<path d="M283.735 29.5594V41.3776H249.573V29.5594H283.735ZM257.329 15.9685H273.062V68.8549C273.062 70.3075 273.284 71.4401 273.727 72.2526C274.17 73.0405 274.786 73.5944 275.573 73.9145C276.386 74.2346 277.322 74.3946 278.38 74.3946C279.119 74.3946 279.858 74.3331 280.596 74.21C281.335 74.0622 281.901 73.9514 282.295 73.8776L284.77 85.585C283.982 85.8312 282.874 86.1143 281.446 86.4344C280.018 86.7791 278.282 86.9884 276.238 87.0622C272.447 87.21 269.123 86.7052 266.267 85.548C263.435 84.3908 261.232 82.5935 259.656 80.156C258.08 77.7185 257.305 74.6408 257.329 70.923V15.9685Z" fill="#55C4FB" fill-opacity="0.83"/>
<path d="M225.245 62.1333V29.5594H240.978V86.2867H225.872V75.9827H225.282C224.001 79.3065 221.872 81.978 218.892 83.9969C215.938 86.0158 212.331 87.0253 208.071 87.0253C204.28 87.0253 200.944 86.1636 198.063 84.4401C195.182 82.7166 192.929 80.2668 191.304 77.0906C189.704 73.9145 188.891 70.1105 188.867 65.6787V29.5594H204.6V62.8719C204.624 66.2204 205.523 68.8672 207.296 70.8122C209.069 72.7573 211.444 73.7298 214.424 73.7298C216.319 73.7298 218.092 73.299 219.742 72.4372C221.391 71.5509 222.721 70.2459 223.73 68.5225C224.765 66.799 225.269 64.6692 225.245 62.1333Z" fill="#55C4FB" fill-opacity="0.83"/>
<path d="M176.264 10.6503V86.2867H160.531V10.6503H176.264Z" fill="#55C4FB" fill-opacity="0.83"/>
<path d="M99.9904 86.2867V10.6503H150.07V23.835H115.982V41.8577H146.746V55.0423H115.982V86.2867H99.9904Z" fill="#55C4FB" fill-opacity="0.83"/>
</svg>
